#!OML:ASF F:\VICON\USERDATA\INSTALL\Justin_Nancy\Justin_Nancy.ASF
:FULLY-SPECIFIED
:DEGREES
332
root 0.882855 17.5795 8.5332 208.471 -78.1064 -207.358
lowerback 7.68451 0.0719096 -4.80778
upperback -0.0657661 -0.344327 0.126427
thorax -4.35621 -0.070955 2.87507
lowerneck -14.9666 -2.87147 -9.24424
upperneck 26.0218 -3.6176 5.32629
head 11.1668 -2.10661 2.97234
rclavicle -2.48481e-016 7.95139e-015
rhumerus -37.8645 -18.8561 -75.2643
rradius 25.169
rwrist 16.198
rhand -14.2084 11.1118
rfingers 7.12502
rthumb 11.9282 -18.5284
lclavicle -2.48481e-016 7.95139e-015
lhumerus -27.3105 13.0715 81.9704
lradius 27.4419
lwrist -5.85178
lhand -21.3438 27.9732
lfingers 7.12502
lthumb 5.04238 57.8933
rfemur -17.0364 4.14603 15.7039
rtibia 72.5258
rfoot 10.0568 6.27931
rtoes 13.5415
lfemur -12.5417 -0.942002 -27.516
ltibia 20.8224
lfoot -7.83935 -3.56394
ltoes 8.87296
333
root 0.76225 17.5686 8.55095 210.015 -78.0816 -209.234
lowerback 8.00817 0.0739974 -5.17408
upperback 0.010352 -0.400594 0.00744889
thorax -4.45332 -0.0925495 2.96599
lowerneck -14.9987 -2.93052 -9.1295
upperneck 25.9761 -3.69948 5.2371
head 11.1591 -2.14044 2.90724
rclavicle -3.67752e-014 1.07344e-014
rhumerus -37.8448 -18.5402 -75.4392
rradius 25.4547
rwrist 15.0969
rhand -13.8574 11.2589
rfingers 7.12502
rthumb 12.2666 -18.3613
lclavicle -3.67752e-014 1.07344e-014
lhumerus -26.9946 12.9386 82.2091
lradius 27.2787
lwrist -5.98063
lhand -21.5133 27.8103
lfingers 7.12502
lthumb 4.87871 57.7341
rfemur -18.1727 2.93825 15.5397
rtibia 73.7094
rfoot 7.68197 6.88822
rtoes -0.0419836
lfemur -11.6242 -1.05079 -28.053
ltibia 20.5614
lfoot -8.22943 -3.50149
ltoes 8.70141
334
root 0.639255 17.5736 8.57023 211.071 -78.3749 -210.492
lowerback 8.25558 -0.125339 -5.28626
upperback 0.0318624 -0.686406 0.111922
thorax -4.54209 -0.228487 3.17436
lowerneck -15.2489 -2.84294 -9.34288
upperneck 26.2465 -3.48972 5.17652
head 11.2976 -2.07754 2.95376
rclavicle 3.62285e-014 -7.95139e-016
rhumerus -38.0017 -18.3373 -75.4748
rradius 25.9772
rwrist 14.4718
rhand -13.6769 11.1756
rfingers 7.12502
rthumb 12.4406 -18.4342
lclavicle 3.62285e-014 -7.95139e-016
lhumerus -26.8361 13.0739 82.4769
lradius 27.1656
lwrist -6.28634
lhand -23.6019 29.1904
lfingers 7.12502
lthumb 2.86182 59.1509
rfemur -19.3871 2.80341 15.3266
rtibia 74.5269
rfoot 7.09462 4.82465
rtoes 7.24804
lfemur -10.9567 -0.941894 -28.2636
ltibia 20.5552
lfoot -8.69792 -3.96978
ltoes 8.74279
335
root 0.510213 17.5671 8.58194 211.167 -78.8159 -210.491
lowerback 8.13691 -0.40452 -5.16917
upperback -0.0253873 -1.02976 0.303294
thorax -4.50116 -0.397764 3.34713
lowerneck -15.4139 -2.77616 -9.61859
upperneck 26.4103 -3.30941 5.17291
head 11.3838 -2.02684 3.02714
rclavicle 9.79014e-015 1.43125e-014
rhumerus -38.1565 -18.3647 -75.5013
rradius 26.3608
rwrist 14.4231
rhand -13.3519 11.1682
rfingers 7.12502
rthumb 12.7539 -18.4223
lclavicle 9.79014e-015 1.43125e-014
lhumerus -26.8658 12.6032 82.7231
lradius 27.368
lwrist -6.18136
lhand -21.2769 28.3753
lfingers 7.12502
lthumb 5.10697 58.2938
rfemur -20.8088 2.31913 15.6744
rtibia 75.2431
rfoot 5.82296 3.40457
rtoes 7.23108
lfemur -10.6267 -0.414596 -28.194
ltibia 20.5507
lfoot -9.22069 -4.59488
ltoes 6.62268
336
root 0.375753 17.5654 8.58174 208.038 -79.9706 -206.863
lowerback 7.61438 -0.719029 -4.14381
upperback -0.133973 -1.30598 0.712525
thorax -4.30508 -0.553835 3.21745
lowerneck -15.4638 -2.82867 -9.75421
upperneck 26.3431 -3.33486 5.1783
head 11.3742 -2.04726 3.04735
rclavicle -2.08724e-014 1.11319e-014
rhumerus -38.1232 -18.0663 -75.5818
rradius 26.6493
rwrist 13.7014
rhand -13.8813 11.0897
rfingers 7.12502
rthumb 12.2435 -18.532
lclavicle -2.08724e-014 1.11319e-014
lhumerus -26.7525 11.9362 83.047
lradius 27.5639
lwrist -6.59847
lhand -19.3296 27.57
lfingers 7.12502
lthumb 6.98698 57.4346
rfemur -22.458 1.53618 17.1356
rtibia 75.6104
rfoot 4.79129 2.15945
rtoes 7.34328
lfemur -10.845 -0.062237 -27.0825
ltibia 20.8329
lfoot -9.78517 -5.44895
ltoes 5.01202
337
root 0.241662 17.5528 8.59643 212.017 -79.2664 -211.173
lowerback 7.78807 -0.620298 -5.26342
upperback -0.101139 -1.295 0.512378
thorax -4.3519 -0.526387 3.64233
lowerneck -15.4556 -2.81625 -10.0192
upperneck 26.2905 -3.27207 5.29368
head 11.3547 -2.02962 3.14392
rclavicle 3.73715e-014 -2.70347e-014
rhumerus -38.1082 -17.4373 -75.7172
rradius 27.0545
rwrist 12.3547
rhand -14.8298 10.9412
rfingers 7.12502
rthumb 11.3289 -18.7328
lclavicle 3.73715e-014 -2.70347e-014
lhumerus -26.693 13.0481 83.0079
lradius 27.4622
lwrist -9.02058
lhand -18.7039 27.151
lfingers 7.12502
lthumb 7.59095 56.9948
rfemur -23.5549 1.42325 15.866
rtibia 76.0276
rfoot 3.77826 2.13305
rtoes 9.57136
lfemur -10.1619 -0.0859717 -28.3225
ltibia 21.1066
lfoot -10.343 -5.19216
ltoes 5.87668
338
root 0.111127 17.55 8.59743 210.704 -79.9198 -209.735
lowerback 7.67776 -0.873671 -4.92827
upperback -0.113313 -1.58161 0.804595
thorax -4.27349 -0.674061 3.78712
lowerneck -15.5475 -2.74964 -10.0301
upperneck 26.2251 -3.10524 5.12245
head 11.3315 -1.97149 3.10483
rclavicle -5.51627e-015 1.19271e-014
rhumerus -37.9939 -17.0732 -75.8098
rradius 27.4439
rwrist 11.3055
rhand -14.543 11.0867
rfingers 7.12502
rthumb 11.6055 -18.5719
lclavicle -5.51627e-015 1.19271e-014
lhumerus -26.5515 14.0609 82.9367
lradius 27.3458
lwrist -11.1764
lhand -16.0382 25.3904
lfingers 7.12502
lthumb 10.1633 55.125
rfemur -24.6947 0.98315 16.6113
rtibia 76.0096
rfoot 2.80595 1.67609
rtoes 12.5976
lfemur -9.97139 0.19019 -27.7512
ltibia 21.4184
lfoot -10.8813 -5.99653
ltoes 6.3845
339
root -0.0155453 17.5321 8.61921 213.316 -79.9691 -212.492
lowerback 7.79648 -1.00248 -5.29308
upperback -0.0696749 -1.79544 0.748077
thorax -4.26454 -0.774475 3.95942
lowerneck -15.573 -2.71011 -9.9105
upperneck 26.1372 -3.02685 4.9674
head 11.2919 -1.93899 3.03672
rclavicle -2.28602e-015 8.74653e-015
rhumerus -37.9028 -16.6372 -75.9413
rradius 27.8837
rwrist 10.6288
rhand -14.0731 10.9664
rfingers 7.12502
rthumb 12.0586 -18.6662
lclavicle -2.28602e-015 8.74653e-015
lhumerus -26.4822 13.0535 83.1752
lradius 27.6965
lwrist -11.3647
lhand -14.5536 24.2556
lfingers 7.12502
lthumb 11.5953 53.9148
rfemur -25.6543 0.585045 16.1091
rtibia 75.9836
rfoot 1.62843 1.47002
rtoes 15.3856
lfemur -9.45933 0.364475 -28.3378
ltibia 21.5152
lfoot -11.3747 -6.25857
ltoes 6.37382
340
root -0.141007 17.5156 8.66649 213.16 -80.11 -212.799
lowerback 8.37832 -1.04097 -4.90719
upperback 0.00772022 -1.84566 0.689472
thorax -4.51884 -0.803087 3.70288
lowerneck -15.4191 -2.71442 -9.72235
upperneck 25.8167 -3.05957 4.89656
head 11.138 -1.9345 2.96975
rclavicle 2.32081e-014 7.95139e-016
rhumerus -37.9116 -16.4756 -76.0269
rradius 28.2159
rwrist 10.1265
rhand -14.2916 10.7973
rfingers 7.12502
rthumb 11.8479 -18.8476
lclavicle 2.32081e-014 7.95139e-016
lhumerus -26.4121 10.7538 84.1771
lradius 28.2756
lwrist -7.70914
lhand -17.7206 26.0991
lfingers 7.12502
lthumb 8.53994 55.9064
rfemur -26.238 0.363968 15.986
rtibia 75.7995
rfoot 0.386327 1.26755
rtoes 16.7431
lfemur -8.43525 0.546519 -28.5748
ltibia 21.4297
lfoot -11.8354 -6.15876
ltoes 7.22085
341
root -0.277384 17.5146 8.63692 213.067 -80.846 -212.247
lowerback 7.82022 -1.21119 -4.979
upperback -0.107179 -2.03559 0.982146
thorax -4.29325 -0.895855 4.0543
lowerneck -15.3145 -2.79729 -9.59989
upperneck 25.6167 -3.16173 4.72585
head 11.0467 -1.98387 2.86897
rclavicle 8.84592e-015 -8.74653e-015
rhumerus -38.1587 -16.4383 -76.0908
rradius 28.7475
rwrist 9.44879
rhand -14.6129 10.8711
rfingers 7.12502
rthumb 11.5381 -18.7913
lclavicle 8.84592e-015 -8.74653e-015
lhumerus -26.2523 12.0035 83.8368
lradius 28.0943
lwrist -11.6912
lhand -13.8426 24.2843
lfingers 7.12502
lthumb 12.2809 53.9037
rfemur -27.8218 -0.061797 16.7473
rtibia 75.4733
rfoot -0.665043 0.187155
rtoes 17.3564
lfemur -8.40328 1.04189 -28.035
ltibia 21.2304
lfoot -12.058 -7.08495
ltoes 10.2775
342
root -0.393817 17.473 8.65543 221.057 -79.2619 -220.836
lowerback 8.39471 -0.945118 -7.13637
upperback 0.000423352 -1.95478 0.404496
thorax -4.46662 -0.814078 4.67461
lowerneck -15.5066 -2.84339 -9.60052
upperneck 25.7223 -3.17988 4.62095
head 11.1252 -2.00422 2.82819
rclavicle -5.45664e-014 -1.66979e-014
rhumerus -38.1327 -16.1753 -76.2749
rradius 29.1514
rwrist 8.55269
rhand -14.876 11.0212
rfingers 7.12502
rthumb 11.2844 -18.6553
lclavicle -5.45664e-014 -1.66979e-014
lhumerus -26.0699 11.1031 84.3449
lradius 28.4532
lwrist -11.4916
lhand -13.6064 24.0735
lfingers 7.12502
lthumb 12.5086 53.6792
rfemur -28.8107 -0.162446 14.2601
rtibia 75.3148
rfoot -1.71998 0.24732
rtoes 17.0591
lfemur -7.43022 1.19564 -30.5379
ltibia 21.2049
lfoot -12.5221 -6.44544
ltoes 10.8955
